<?xml version="1.0" encoding="UTF-8" standalone="no"?>
<!-- Created with Inkscape (http://www.inkscape.org/) -->

<svg
   xmlns:dc="http://purl.org/dc/elements/1.1/"
   xmlns:cc="http://creativecommons.org/ns#"
   xmlns:rdf="http://www.w3.org/1999/02/22-rdf-syntax-ns#"
   xmlns:svg="http://www.w3.org/2000/svg"
   xmlns="http://www.w3.org/2000/svg"
   xmlns:sodipodi="http://sodipodi.sourceforge.net/DTD/sodipodi-0.dtd"
   xmlns:inkscape="http://www.inkscape.org/namespaces/inkscape"
   width="47.438541mm"
   height="47.438541mm"
   viewBox="0 0 47.438541 47.438542"
   version="1.1"
   id="svg8"
   inkscape:version="0.92.2 5c3e80d, 2017-08-06"
   sodipodi:docname="p.svg">
  <defs
     id="defs2" />
  <sodipodi:namedview
     id="base"
     pagecolor="#ffffff"
     bordercolor="#666666"
     borderopacity="1.0"
     inkscape:pageopacity="0.0"
     inkscape:pageshadow="2"
     inkscape:zoom="4"
     inkscape:cx="80.299325"
     inkscape:cy="101.68823"
     inkscape:document-units="mm"
     inkscape:current-layer="layer2"
     showgrid="false"
     inkscape:window-width="1920"
     inkscape:window-height="1030"
     inkscape:window-x="0"
     inkscape:window-y="27"
     inkscape:window-maximized="1"
     fit-margin-top="0"
     fit-margin-left="0"
     fit-margin-right="0"
     fit-margin-bottom="0" />
  <metadata
     id="metadata5">
    <rdf:RDF>
      <cc:Work
         rdf:about="">
        <dc:format>image/svg+xml</dc:format>
        <dc:type
           rdf:resource="http://purl.org/dc/dcmitype/StillImage" />
        <dc:title></dc:title>
      </cc:Work>
    </rdf:RDF>
  </metadata>
  <g
     inkscape:groupmode="layer"
     id="layer3"
     inkscape:label="circle"
     transform="translate(7.8713484,4.2845612)">
    <circle
       style="display:inline;fill:#ffcb0f;fill-opacity:1;stroke:none;stroke-width:1.61313355;stroke-opacity:0.98823529"
       id="path17"
       cx="15.847922"
       cy="19.43471"
       r="23.719271" />
  </g>
  <g
     inkscape:groupmode="layer"
     id="layer2"
     inkscape:label="p"
     style="display:inline"
     transform="translate(-75.336296,-119.19834)">
    <path
       style="fill:#0f0e9f;fill-opacity:1;stroke:none;stroke-width:0.26458332px;stroke-linecap:butt;stroke-linejoin:miter;stroke-opacity:0.98823529"
       d="m 92.380263,126.3114 v 30.67771 l -0.945161,0.17725 -0.968417,0.18862 -0.791165,0.23617 -1.086758,0.35449 -0.9803,0.46044 -0.874365,0.61443 0.08475,0.0941 0.263033,-0.076 c 0,0 0.812734,-0.31543 0.836126,-0.32143 0.02339,-0.006 1.53207,-0.41548 1.555459,-0.41548 0.02339,0 1.356508,-0.19275 1.356508,-0.19275 0,0 1.730507,-0.1757 1.753896,-0.1757 0.02339,0 1.163463,-0.0701 1.192694,-0.0641 0.02923,0.006 3.051493,0.12299 3.051493,0.12299 l 0.906404,0.0992 1.964222,0.35088 c 0,0 1.532058,0.35089 1.555458,0.35089 0.0234,0 1.1281,0.25115 1.1281,0.25115 l 1.21026,0.15813 0.9648,0.13435 0.95911,0.12868 0.82424,0.0584 c 0,0 1.2041,-0.053 1.2392,-0.047 0.0351,0.006 0.97669,-0.1695 0.97669,-0.1695 l 0.69556,-0.17518 0.75241,-0.29353 0.51263,-0.25631 0.48783,-0.3638 0.29765,-0.53744 0.0744,-0.33073 -0.0248,-0.0413 -0.14882,0.0744 -0.26459,0.11576 -0.40514,0.14883 -0.42168,0.0992 -0.78548,-0.0165 -1.81074,-0.0248 -0.80202,-0.0579 -0.11576,-0.0713 -0.0646,-0.30386 -0.0465,-0.32143 -0.0822,-0.42684 -0.0817,-0.42685 -0.0997,-0.339 -0.0935,-0.33331 -0.076,-0.31574 -0.0233,-0.15193 0.0176,-0.0935 0.0703,-0.15193 0.0351,-0.21084 -0.047,-0.26871 -0.0527,-0.20464 -0.0816,-0.18139 -0.1757,-0.14572 0.0646,-0.11111 0.13436,-0.047 0.0879,-0.22221 0.0233,-0.26304 -0.0641,-0.37982 -0.18138,-0.31006 c 0,0 -0.20433,-0.23963 -0.21033,-0.26303 -0.006,-0.0234 -0.18706,-0.12867 -0.18706,-0.12867 l -0.19328,-0.0119 -0.0816,0.076 -0.006,0.15813 c 0,0 0.0353,0.16367 0.047,0.18707 0.0117,0.0234 0.11111,0.1111 0.11111,0.1111 l 0.076,0.0935 0.11679,0.12247 0.0641,0.14056 -0.11111,-0.0584 c 0,0 -0.14594,-0.14042 -0.15761,-0.16382 -0.0118,-0.0234 -0.10542,-0.12299 -0.10542,-0.12299 l -0.13436,-0.0522 -0.12247,0.0346 -0.0879,0.11731 -0.0822,0.12867 -0.0817,0.14573 -0.076,0.11731 c 0,0 -0.1111,-0.0174 -0.1111,-0.0408 0,-0.0234 -0.0176,-0.18138 -0.0176,-0.18138 0,0 0.0177,-0.16367 0.0294,-0.18707 0.0117,-0.0234 -0.0413,-0.18707 -0.0413,-0.18707 l -0.11059,-0.12868 -0.1111,-0.006 -0.0879,0.11111 -0.0233,0.15193 -0.0119,0.37413 -0.0176,0.25735 0.0992,0.33331 0.20464,0.2341 0.1695,0.12867 0.0238,0.1633 0.0176,0.49144 0.006,0.37982 0.15193,0.1695 0.11731,0.0879 -0.0238,0.32143 -0.0641,0.47956 0.0119,0.63717 -0.006,0.47955 -0.047,0.27492 -0.21601,0.0289 -0.2868,-0.0233 -0.28061,-0.0997 -0.17518,-0.1049 -0.076,-0.21084 -0.0822,-0.29198 -0.0522,-0.44441 -0.0527,-0.6196 -0.0878,-0.43305 -0.0641,-0.35037 c 0,0 -0.0179,-0.45036 -0.0119,-0.47955 0.006,-0.0292 0.006,-0.42117 0.006,-0.42117 l -0.047,-0.2806 -0.0992,-0.30386 -0.0935,-0.28628 -0.0294,-0.25167 0.006,-0.21601 0.0289,-0.23409 c 0,0 0.0291,-0.20449 0.0351,-0.22789 0.006,-0.0234 0.0997,-0.41548 0.0997,-0.41548 l 0.12248,-0.13436 0.23409,-0.13436 0.29817,-0.0527 h 0.32143 l 0.39171,0.006 h 0.23358 c 0.0234,0 0.39196,-2.6e-4 0.42116,0.006 0.0292,0.006 0.27492,-0.006 0.27492,-0.006 l 0.1049,-0.076 c 0,0 0.0235,-0.12288 0.0295,-0.14625 0.006,-0.0234 -0.047,-0.12867 -0.047,-0.12867 l -0.12247,-0.0641 -0.31575,-0.0119 -0.40359,-0.0233 -0.29197,0.006 h -0.3452 l -0.39739,-0.0233 -0.40359,-0.076 -0.35089,-0.0527 -0.15193,-0.0465 -0.0703,-0.1173 0.0119,-0.12868 0.0703,-0.14004 0.0584,-0.16382 -0.0119,-0.25734 -0.10491,-0.23358 -0.21084,-0.14056 -0.30385,-0.0351 -0.29249,0.0238 -0.18707,0.12816 -0.0703,0.16381 -0.0346,0.15193 0.0346,0.25735 0.1173,0.10542 0.0817,0.12867 -0.0584,0.0935 -0.17518,0.0816 -0.29249,-0.0816 -0.19896,-0.1757 -0.32711,-0.30386 -0.2806,-0.25735 -0.24598,-0.18707 -0.17518,-0.23358 -0.0935,-0.14056 -0.10542,-0.14004 -0.14004,-0.14056 -0.198956,-0.0233 -0.210323,0.0233 -0.151929,0.10542 -0.01188,0.22221 0.04703,0.19844 0.163295,0.1173 0.28112,0.0233 0.187063,0.11679 0.19844,0.29249 0.25735,0.24546 0.19895,0.29249 0.24547,0.30386 0.24546,0.25735 0.21032,0.23357 0.14056,0.39791 0.0465,1.51981 v 0.78341 l 0.1757,0.72502 0.0703,0.70177 0.0935,0.79478 v 0.54984 l -0.30438,-0.047 -0.40928,-0.11679 -0.64285,-0.10542 -0.67851,-0.0935 -0.572574,-0.0584 -0.748273,0.0119 -0.304377,-0.047 -0.257347,-0.14004 v -7.22644 l 0.04702,-1.63711 -0.198953,-0.44441 -0.303858,-0.45579 -0.292489,-0.30386 -0.32711,-0.32763 -0.327631,-0.24546 -0.374136,-0.0233 -0.198954,-0.0703 -0.08165,-0.15192 -0.02326,-0.17571 0.128675,-0.16381 0.187068,-0.0698 h 0.397394 0.490926 l 0.280601,0.11679 0.198956,0.15193 0.1757,0.047 0.04651,-0.0351 -0.11679,-1.73064 -0.198953,-1.23972 -0.327112,-0.97048 -0.292489,-0.71314 -0.292489,-0.65474 -0.151927,-0.26923 v -0.28061 l 0.105418,-0.16381 0.198438,0.0351 0.163814,0.15244 0.25735,0.36226 0.245461,0.42116 0.187071,0.39739 0.1757,0.37414 0.08165,-3.08715 0.292489,-1.98748 c 0,0 0.198303,-1.46185 0.221692,-1.52032 0.02339,-0.0585 0.09405,-0.42064 0.09405,-0.42064 l 0.03462,-0.26924 0.08217,-0.17518 0.128672,-0.0935 0.187071,-0.0119 c 0,0 0.140103,0.18729 0.175184,0.23409 0.03506,0.0468 0.02326,0.39739 0.02326,0.39739 l -0.08165,0.39739 -0.10542,0.45631 -0.06976,0.52606 -0.117306,0.54984 -0.04651,0.71313 -0.01188,0.47956 0.04702,0.1633 0.151929,0.0703 0.151929,-0.0351 0.245465,-0.2806 0.210323,-0.30386 0.210838,-0.22221 0.151929,-0.0351 0.09354,0.0935 0.04651,0.11679 -0.03514,0.14056 -0.09302,0.18707 -0.257347,0.35088 -0.234095,0.30386 -0.245462,0.30386 -0.187068,0.29249 -0.210326,0.30385 -0.128672,0.29249 -0.03514,0.28061 v 2.44378 l 0.163814,1.0175 0.128675,0.46768 0.104905,0.23357 h 0.07028 l 0.151929,-0.1633 0.292489,-0.47955 0.303858,-0.46767 0.362765,-0.52659 0.26872,-0.52606 0.21032,-0.44442 0.19896,-0.38551 0.12867,-0.2222 0.11679,-0.0935 0.0935,-0.0119 0.0822,0.0351 0.0351,0.10542 0.0233,0.11679 -0.047,0.14056 -0.0584,0.21032 -0.0816,0.17519 -0.12868,0.19895 -0.15193,0.30386 -0.10541,0.1757 -0.0119,0.21032 0.0703,0.16381 0.12867,0.0584 0.14004,-0.0816 0.14056,-0.0822 0.0935,-0.0584 h 0.12867 l 0.0584,0.10542 v 0.19844 l -0.16382,0.1173 -0.30385,0.10491 -0.36226,0.14056 -0.31574,0.31574 -0.362766,0.42064 -0.280603,0.5731 -0.198954,0.53795 -0.128159,0.6196 -0.105418,0.64337 -0.07028,0.43253 -0.02326,0.59635 h 4.93458 l 0.45579,-0.0822 0.76016,-0.22221 0.6196,-0.2806 0.6196,-0.26872 0.87695,-0.4563 0.57309,-0.36225 0.6196,-0.52607 0.4563,-0.47955 0.3974,-0.44442 0.43253,-0.50281 0.28112,-0.51418 0.35036,-0.62012 0.2341,-0.43253 0.2806,-0.73639 0.14004,-0.59635 0.10543,-0.76016 0.0667,-0.7953 v -5.27668 l -0.19844,-0.76068 -0.31419,-0.9095 -0.3142,-0.64492 -0.19843,-0.44649 -0.36381,-0.66146 -0.47955,-0.67799 -0.38034,-0.41341 -0.52917,-0.47956 -0.56224,-0.39687 -0.85989,-0.4961 -0.89297,-0.42995 -1.02526,-0.31419 -0.97565,-0.14883 -0.92604,-0.0496 z m 7.742677,3.61993 0.19586,0.12609 0.10232,0.19276 v 0.41806 l -0.0589,0.40049 -0.17208,0.41807 -0.306957,0.3917 -0.348297,0.25735 c 0,0 -0.251177,0.12567 -0.268719,0.12868 l -0.14056,-0.1726 -0.04961,-0.27182 -0.02326,-0.43253 -0.01447,-0.31575 0.104905,-0.31574 c 0,0 0.190365,-0.31013 0.202054,-0.32763 0.0117,-0.0175 0.271817,-0.27182 0.271817,-0.27182 0,0 0.30993,-0.20763 0.32453,-0.20463 0.01463,0.003 0.181387,-0.0207 0.181387,-0.0207 z m -3.113501,2.12236 c 0.01754,0.003 0.201536,0.047 0.201536,0.047 l 0.204639,0.19276 0.158131,0.23099 0.122473,0.30386 0.03824,0.35398 c 0,0 -0.03824,0.4295 -0.03824,0.447 0,0.0175 -0.06706,0.31013 -0.07286,0.32763 -0.0058,0.0175 -0.08185,0.18714 -0.08475,0.20464 -0.0029,0.0175 -0.114091,0.10199 -0.119891,0.11369 -0.0058,0.0117 -0.111104,-0.0786 -0.111104,-0.0786 l -0.160713,-0.10852 -0.195855,-0.17519 -0.149344,-0.1664 -0.07855,-0.23099 -0.04134,-0.35657 c 0,0 -0.02048,-0.36553 -0.01757,-0.37723 0.0029,-0.0117 0.03256,-0.38913 0.03256,-0.38913 l 0.06976,-0.23667 0.114205,-0.076 c 0,0 0.111133,-0.0293 0.128675,-0.0264 z m 4.069001,1.32446 0.1757,0.0847 0.0522,0.18139 c 0,-1e-5 -0.0171,0.37401 -0.0202,0.3886 -0.003,0.0146 -0.14314,0.44132 -0.14314,0.44132 l -0.27182,0.43253 -0.37724,0.35657 c 0,0 -0.36245,0.1696 -0.37413,0.1726 -0.0117,0.003 -0.309734,0.0119 -0.321433,0.0119 0,0 -0.09083,-0.17279 -0.09663,-0.18449 -0.0059,-0.0117 0.0057,-0.48511 0.0057,-0.49971 0,-0.0146 0.10232,-0.35346 0.10232,-0.35346 l 0.222213,-0.45062 c 0,0 0.36244,-0.33869 0.37414,-0.34468 0.0117,-0.006 0.34778,-0.21033 0.34778,-0.21033 z m -5.761406,1.46141 0.125574,0.009 0.271817,0.1142 0.289388,0.13436 0.344684,0.31884 0.324527,0.41186 0.20774,0.44132 c 0,0 0.04961,0.44449 0.04961,0.46199 0,0.0175 -0.01757,0.53795 -0.01757,0.53795 l -0.07028,0.003 -0.09354,-0.003 -0.306959,-0.10801 -0.411861,-0.20463 -0.315743,-0.31885 -0.222208,-0.26872 c 0,0 -0.216323,-0.46774 -0.213423,-0.48524 0.0029,-0.0175 -0.01447,-0.55552 -0.01447,-0.55552 l 0.03772,-0.42995 z m 5.328876,2.74815 0.24546,0.0264 0.11421,0.15193 0.0351,0.46457 c 0,0 -0.0267,0.42413 -0.0207,0.43873 0.006,0.0146 -0.10232,0.339 -0.10232,0.339 0,0 -0.12526,0.25702 -0.13126,0.26872 -0.006,0.0117 -0.27802,0.40049 -0.27802,0.40049 l -0.41186,0.3421 -0.281118,0.20153 -0.198437,-0.12557 -0.116787,-0.18707 -0.05581,-0.33331 0.0057,-0.35657 0.03256,-0.37982 0.180869,-0.43874 0.348303,-0.447 0.37104,-0.29507 z m -6.86108,0.0346 h 0.09095 l 0.175183,0.009 c 0,0 0.260128,0.0322 0.271817,0.0382 0.0117,0.006 0.248748,0.10811 0.260448,0.11111 0.01169,0.003 0.262702,0.17797 0.274402,0.18397 0.0117,0.006 0.25735,0.26303 0.25735,0.26303 l 0.274918,0.48266 0.143145,0.42684 0.02066,0.43822 c 0,0 -0.04961,0.28389 -0.04961,0.29559 0,0.0117 -0.117305,0.0698 -0.117305,0.0698 l -0.163296,-0.0408 -0.421164,-0.14883 -0.397391,-0.31316 -0.386024,-0.46457 -0.201538,-0.42685 -0.0615,-0.35088 0.01138,-0.46767 z m 9.65264,1.33067 c 0.0146,0.003 0.24585,0.0344 0.26045,0.0434 0.0146,0.009 0.0843,0.12576 0.0873,0.13746 0.003,0.0117 0.006,0.26924 0.006,0.26924 l -0.15503,0.49403 -0.49713,0.62838 c 0,0 -0.44106,0.25393 -0.46147,0.25993 -0.0204,0.006 -0.49144,0.0558 -0.49144,0.0558 l -0.12867,-0.0232 -0.0408,-0.1695 -0.009,-0.32195 0.0817,-0.35346 0.18448,-0.38034 0.25425,-0.23668 0.24857,-0.16072 0.35656,-0.17828 c 0,0 0.28926,-0.0671 0.30386,-0.0641 z m 2.15749,1.53995 0.38292,0.0734 0.11679,0.15503 -0.076,0.29818 c 0,0 -0.17253,0.2864 -0.21343,0.33899 -0.0409,0.0526 -0.2132,0.28079 -0.22221,0.29249 -0.009,0.0117 -0.34468,0.25684 -0.34468,0.25684 l -0.29249,0.0615 -0.44441,0.0233 -0.27182,-0.0408 -0.23668,-0.11679 -0.13126,-0.0878 0.0176,-0.18086 c 0,0 0.14591,-0.31553 0.15761,-0.32453 0.0117,-0.009 0.44701,-0.43564 0.44701,-0.43564 l 0.34209,-0.21342 c 0,0 0.34527,-0.0822 0.36277,-0.0822 0.0175,0 0.40618,-0.0176 0.40618,-0.0176 z m -11.42721,0.70177 h 0.0615 l 0.333314,0.015 c 0,0 0.490956,0.13145 0.508495,0.14315 0.01754,0.0117 0.479557,0.339 0.479557,0.339 l 0.371554,0.32711 0.338998,0.53795 0.227893,0.6258 -0.06408,0.73381 c 0,0 -0.161089,0.0176 -0.175699,0.0176 -0.01463,0 -0.409279,-0.12867 -0.409279,-0.12867 l -0.377237,-0.14056 -0.309542,-0.20154 -0.362767,-0.33331 -0.245465,-0.31884 -0.213423,-0.35347 -0.140044,-0.49093 -0.04702,-0.35398 z m 8.38709,1.46451 c 0.0146,0.006 0.24546,0.12299 0.24546,0.12299 l 0.0966,0.18397 c 0,0 -2e-4,0.23686 -0.006,0.24856 -0.006,0.0117 -0.0725,0.32162 -0.0785,0.33332 -0.006,0.0117 -0.30696,0.39739 -0.30696,0.39739 0,0 -0.36554,0.40636 -0.37724,0.41806 -0.0117,0.0117 -0.48214,0.31006 -0.48214,0.31006 l -0.5178,0.1142 -0.69556,-0.0351 -0.15452,-0.14366 0.0408,-0.28319 0.17518,-0.41547 0.30127,-0.44701 0.35657,-0.35966 0.53795,-0.32143 c 0,0 0.36832,-0.108 0.38292,-0.108 0.0146,0 0.46755,-0.021 0.48215,-0.015 z m -7.810896,3.39411 0.677995,0.0408 0.327628,0.17518 0.32711,0.1757 0.365871,0.30696 c 0,0 0.245462,0.2834 0.245462,0.29507 0,0.0117 0.03204,0.25425 0.03204,0.25425 0,0 -0.166595,0.13456 -0.178284,0.14056 -0.01169,0.006 -0.312643,0.1664 -0.312643,0.1664 l -0.27492,0.0848 -0.508495,0.0238 -0.692981,-0.076 -0.380338,-0.22842 -0.265618,-0.18086 -0.263033,-0.22531 -0.225309,-0.30127 -0.01447,-0.21343 0.02016,-0.12557 0.20774,-0.15762 0.397391,-0.11989 z m 7.959716,8.69663 0.0413,0.0413 0.0744,0.40514 0.091,0.39274 0.16536,0.46302 0.0703,0.68213 c -10e-6,0 -0.0331,0.23975 -0.0331,0.27285 0,0.0331 -0.0744,0.0868 -0.0744,0.0868 l -0.11576,0.0124 -0.17363,-0.0786 -0.12403,-0.11576 -0.0124,-0.1943 -0.0124,-0.64079 -0.0207,-0.57878 0.0413,-0.41754 z m 2.89802,1.38492 0.13229,0.13229 0.0661,0.17777 c 10e-6,0 0.0411,0.25219 0.0331,0.28939 -0.008,0.0372 0.14883,0.38447 0.14883,0.38447 0,0 0.15296,0.29356 0.15296,0.31006 0,0.0165 -0.0372,0.19017 -0.0372,0.19017 l -0.15709,-0.062 -0.35967,-0.091 -0.31006,-0.0579 0.062,-0.11989 0.10749,-0.22324 0.0331,-0.48369 0.0455,-0.33487 z"
       id="path3714"
       inkscape:connector-curvature="0" />
    <path
       style="fill:#0f0e9f;fill-opacity:1;stroke:none;stroke-width:0.26458332px;stroke-linecap:butt;stroke-linejoin:miter;stroke-opacity:1"
       d="m 83.219726,159.0446 0.223242,-0.339 0.421679,-0.28112 0.661459,-0.35554 0.780478,-0.41492 0.906211,-0.38587 1.011449,-0.44434 c 0,0 1.3447,-0.36248 1.368087,-0.37417 0.02339,-0.0117 1.180997,-0.26894 1.180997,-0.26894 l 1.531789,-0.16371 3.56053,-0.0526 1.765649,0.0234 2.490618,0.30402 1.800726,0.43849 1.98782,0.40341 1.65457,0.32741 0.82435,0.0994 c 0,0 1.4441,-0.0117 1.47333,-0.0175 0.0292,-0.006 0.96467,-0.0526 0.96467,-0.0526 0,0 0.4268,-0.0877 0.45019,-0.0935 0.0234,-0.006 0.73666,-0.1637 0.73666,-0.1637 l 0.56711,-0.19878 0.0935,-0.006 -0.076,0.15201 -0.52034,0.34495 -1.05238,0.48526 -1.40316,0.32156 -2.24506,0.40925 c 0,0 -3.17467,0.0585 -3.19805,0.0526 -0.0234,-0.006 -1.391472,-0.12278 -1.391472,-0.12278 l -1.467477,-0.23386 -2.087208,-0.32156 -1.426551,-0.23386 -2.093056,-0.2514 c 0,0 -3.133733,-0.0292 -3.157119,-0.0351 -0.02339,-0.006 -1.368086,0.16371 -1.368086,0.16371 l -1.251157,0.14616 -0.964676,0.27478 c 0,0 -1.373931,0.4385 -1.397317,0.4385 -0.02339,0 -0.625579,0.2514 -0.625579,0.2514 0,0 -0.602191,0.26894 -0.625578,0.26894 -0.02339,0 -0.11693,0.0234 -0.11693,0.0234 z"
       id="path4547"
       inkscape:connector-curvature="0" />
  </g>
</svg>
